<svg width="256" height="256" viewBox="0 0 256 256" fill="none" xmlns="http://www.w3.org/2000/svg">
<rect width="256" height="256" fill="#0C0C0C"/>
<path d="M32.944 194V60.368H65.712V82.64H66.992C69.552 75.6427 73.648 69.6693 79.28 64.72C84.912 59.7707 92.7627 57.296 102.832 57.296C112.048 57.296 119.984 59.5147 126.64 63.952C133.296 68.3893 138.245 75.1307 141.488 84.176H142C144.389 76.6667 149.083 70.352 156.08 65.232C163.248 59.9413 172.208 57.296 182.96 57.296C196.101 57.296 206.171 61.8187 213.168 70.864C220.336 79.9093 223.92 92.7947 223.92 109.52V194H191.152V112.848C191.152 93.7333 183.984 84.176 169.648 84.176C166.405 84.176 163.248 84.688 160.176 85.712C157.275 86.5653 154.629 87.9307 152.24 89.808C150.021 91.5147 148.229 93.7333 146.864 96.464C145.499 99.024 144.816 102.096 144.816 105.68V194H112.048V112.848C112.048 93.7333 104.88 84.176 90.544 84.176C87.472 84.176 84.4 84.688 81.328 85.712C78.4267 86.5653 75.7813 87.9307 73.392 89.808C71.1733 91.5147 69.296 93.7333 67.76 96.464C66.3947 99.024 65.712 102.096 65.712 105.68V194H32.944Z" fill="white"/>
</svg>
